<?xml version="1.0" encoding="UTF-8"?>
<svg width="58px" height="64px" viewBox="0 0 58 64" version="1.1" xmlns="http://www.w3.org/2000/svg" xmlns:xlink="http://www.w3.org/1999/xlink">
    <title>Shape</title>
    <g id="Website-v3" stroke="none" stroke-width="1" fill="none" fill-rule="evenodd">
        <path d="M53.200085,12.3707527 L33.9130733,1.26038471 C30.9356583,-0.420128237 27.201305,-0.420128237 24.2052463,1.26038471 L4.91823459,12.3707527 C1.29387976,14.4178892 0,17.4104305 0,20.8980067 L0,43.2304046 C0,46.7198418 1.81217742,49.930124 4.79145675,51.6292473 L24.2071107,62.7396153 C27.1845256,64.4201282 30.9188789,64.4201282 33.9149376,62.7396153 L53.2019493,51.6292473 C56.1793643,49.9487344 57.9934061,46.7198418 57.9934061,43.2304046 L57.9934061,20.8980067 C58.1239127,17.4085695 56.3098709,14.1982873 53.2019493,12.3707527 L53.200085,12.3707527 Z M40.2556942,48.2886928 C40.2556942,48.80606 39.8679032,49.1931549 39.3496055,49.1931549 L18.7668497,49.1931549 C18.248552,49.1931549 17.860761,48.80606 17.860761,48.2886928 L17.860761,44.0083165 C17.8706517,43.5292512 18.0548849,43.0701564 18.3790586,42.7167595 L20.8400403,40.390468 L22.2644267,26.6932639 C22.274349,26.311783 22.1352881,25.9413971 21.8766356,25.6603905 L19.9376803,23.9798776 C19.5498893,23.5927827 19.2907405,23.2038267 19.2907405,22.6883206 L19.2907405,15.9886012 C19.2907405,15.471234 19.6785315,14.9557278 20.1968292,14.9557278 L23.3028863,14.9557278 C23.821184,14.9557278 24.3376173,15.3428227 24.3376173,15.8601899 L24.3376173,17.4104305 L26.798599,17.4104305 L26.798599,16.0053505 C26.8387986,15.4523834 27.2793683,15.0126046 27.8333299,14.9724771 L30.2943116,14.9724771 C30.8126092,14.9724771 31.2004003,15.359572 31.2004003,15.8769392 L31.2004003,17.4271798 L33.6613819,17.4271798 L33.6613819,16.0053505 C33.6613819,15.359572 34.1796796,14.9724771 34.8266195,14.9724771 L37.8040344,14.9724771 C38.3223321,14.9724771 38.8387654,15.359572 38.8387654,15.8769392 L38.8387654,22.8558135 C38.8387654,23.2429084 38.5777522,23.7602757 38.3204677,24.0189593 L36.2696496,25.6994722 C36.0346991,25.9439859 35.8968669,26.265458 35.8818586,26.6039343 L37.306245,40.4314108 L39.7672266,42.8879745 C40.0282398,43.1485192 40.1550177,43.533753 40.1550177,43.9208479 L40.2556942,48.2886928 Z M29.1253453,33.8191599 C27.5723167,33.8191599 26.2784369,35.1107169 26.2784369,36.7912299 L26.2784369,42.7353698 C26.2784369,42.9959145 26.5394501,43.3811483 26.9253768,43.3811483 L31.2134509,43.3811483 C31.601242,43.3811483 31.8603908,43.1206037 31.8603908,42.7353698 L31.8603908,36.9233632 C31.8603908,35.2428503 30.6951533,33.9512933 29.1421247,33.822882 L29.1253453,33.8191599 Z" id="Shape" fill="#514A59" fill-rule="nonzero"></path>
    </g>
</svg>