<?xml version="1.0" encoding="UTF-8"?>
<svg width="61px" height="63px" viewBox="0 0 61 63" version="1.1" xmlns="http://www.w3.org/2000/svg"
    xmlns:xlink="http://www.w3.org/1999/xlink">
    <title>Group</title>
    <g id="Website-v3" stroke="none" stroke-width="1" fill="none" fill-rule="evenodd">
        <g id="Group" fill="#FFFFFF">
            <path
                d="M0.361702925,40.0960926 L23.1552887,62.8896783 L2.04208818,62.8896783 C1.11409542,62.8896783 0.361702925,62.1372858 0.361702925,61.209293 L0.361702925,40.0960926 Z M59.9548854,60.1783767 C60.3485157,60.6850128 60.4190919,61.3718703 60.1372072,61.9478223 C59.8549025,62.5241945 59.2692883,62.8896783 58.6278012,62.8896783 L38.4640184,62.8896783 C38.4640184,62.8896783 27.0798284,51.5050682 23.3212267,47.7464665 C22.6650363,47.0902761 22.6650363,46.0265922 23.3212267,45.3699817 C26.1287304,42.5628981 33.1577819,35.5334265 36.1169403,32.5742681 C36.4580585,32.2331499 36.9289865,32.055029 37.4099967,32.085276 C37.8914271,32.1155229 38.3363091,32.3507768 38.6320569,32.7313841 C42.5049248,37.7162469 54.9557393,53.7437615 59.9548854,60.1783767 Z M36.7836331,0.193244304 L48.6555549,0.193244304 C49.3314899,0.193244304 49.9418898,0.598217149 50.2040299,1.22121998 C50.4665901,1.84422281 50.3304789,2.5634277 49.8582907,3.04737865 C43.9639193,9.08626314 30.7665936,22.6066429 30.7665936,22.6066429 L30.7707946,22.611684 C30.7707946,22.611684 19.4193721,33.9631065 15.6666518,37.7158268 C15.3515796,38.0308991 14.9243416,38.2077596 14.4786194,38.2077596 C14.0328972,38.2077596 13.6052392,38.0308991 13.2901669,37.7158268 C11.7337101,36.15937 9.02030802,33.4459679 7.46385119,31.8895111 C6.80766075,31.2333206 6.80766075,30.1692167 7.46385119,29.5130262 C13.0906212,23.8866763 36.7836331,0.193244304 36.7836331,0.193244304 Z M21.4749034,0.193244304 L0.361702925,21.3064448 L0.361702925,1.87362955 C0.361702925,0.9456368 1.11409542,0.193244304 2.04208818,0.193244304 L21.4749034,0.193244304 Z"
                id="Shape"></path>
        </g>
    </g>
</svg>