<?xml version="1.0" encoding="UTF-8"?>
<svg width="64px" height="64px" viewBox="0 0 64 64" version="1.1" xmlns="http://www.w3.org/2000/svg" xmlns:xlink="http://www.w3.org/1999/xlink">
    <title>Shape</title>
    <defs>
        <radialGradient cx="50%" cy="-50%" fx="50%" fy="-50%" r="99.999879%" id="radialGradient-1">
            <stop stop-color="#20C6B7" offset="0%"></stop>
            <stop stop-color="#4D9ABF" offset="100%"></stop>
        </radialGradient>
    </defs>
    <g id="Website-v3" stroke="none" stroke-width="1" fill="none" fill-rule="evenodd">
        <path d="M46.3829143,22.2096686 L46.3595206,22.1996538 C46.3461528,22.1946464 46.332785,22.189639 46.3210882,22.177955 C46.2822304,22.1362631 46.2649458,22.0789168 46.2743009,22.0227251 L47.5659643,14.134377 L53.6232474,20.1866729 L47.323673,22.8639709 C47.3061661,22.8710229 47.2874023,22.8744307 47.2685308,22.8740243 L47.2434662,22.8740243 C47.2351114,22.8689783 47.2267565,22.8623018 47.2100467,22.8456104 C46.9756076,22.5848667 46.6952529,22.3693156 46.3829143,22.2096686 Z M55.168899,21.7289568 L61.6455967,28.1985373 C62.9907313,29.5438628 63.6641341,30.2148565 63.9097674,30.992675 C63.9465288,31.1078455 63.9766064,31.2230161 64,31.3415249 L48.5217618,24.7934949 C48.5134443,24.7900641 48.5050889,24.7867256 48.4966972,24.7834801 C48.4348712,24.758443 48.3630192,24.7300676 48.3630192,24.6666404 C48.3630192,24.6032131 48.4365421,24.5731686 48.4983682,24.5481316 L48.5184199,24.5397859 L55.168899,21.7289568 Z M63.735986,33.4179331 C63.4017911,34.0455291 62.750111,34.6964931 61.6472677,35.7997936 L54.3451085,43.0922593 L44.9007598,41.1276834 L44.8506305,41.1176686 C44.7670818,41.1043155 44.6785201,41.0892932 44.6785201,41.014182 C44.6060146,40.2275018 44.2095943,39.5062655 43.5840317,39.0228999 C43.5455993,38.9845097 43.5556252,38.9244207 43.567322,38.8693391 C43.567322,38.8609934 43.567322,38.8526478 43.570664,38.8459712 L45.34691,27.9531739 L45.3535939,27.9164529 C45.3636197,27.832996 45.3786585,27.7361859 45.4538524,27.7361859 C46.2227744,27.6406367 46.9211075,27.2407391 47.392183,26.6262089 C47.4072217,26.6095175 47.4172476,26.591157 47.4372993,26.5811421 C47.4907705,26.5561051 47.5542675,26.5811421 47.6094097,26.6045101 L63.734315,33.4179331 L63.735986,33.4179331 Z M52.665779,44.7697434 L40.6581551,56.7641721 L42.713454,44.1454857 L42.7167959,44.1287943 C42.7184669,44.1121029 42.7218088,44.0954115 42.7268218,44.0803893 C42.7435315,44.0403299 42.7869768,44.0236386 42.8287512,44.0069472 L42.8488029,43.9986015 C43.2988227,43.8068085 43.6968411,43.511054 44.0101303,43.1356569 C44.0502337,43.088921 44.0986919,43.0438543 44.160518,43.0355086 C44.1765646,43.032892 44.1929297,43.032892 44.2089763,43.0355086 L52.664108,44.7714126 L52.665779,44.7697434 Z M38.1166027,59.3029316 L36.7631132,60.6549337 L21.7995353,39.0529444 C21.7941241,39.045043 21.7885531,39.037252 21.7828255,39.0295764 C21.7594319,38.9978628 21.7343672,38.9661492 21.7393802,38.9294281 C21.7393802,38.9027219 21.7577609,38.879354 21.7761416,38.8593243 L21.7928514,38.8376255 C21.8379677,38.77086 21.8764001,38.7040944 21.9181745,38.6323215 L21.951594,38.5739016 L21.9566069,38.5688942 C21.9800005,38.5288349 22.0017232,38.4904447 22.0418266,38.4687459 C22.0769171,38.4520545 22.1253753,38.4587311 22.1638077,38.4670768 L38.7415472,41.882134 C38.7879005,41.8893343 38.8316273,41.9083001 38.8685413,41.9372155 C38.890264,41.9589143 38.8952769,41.9822823 38.9002898,42.0089885 C39.1346953,42.8949009 39.7701713,43.6204493 40.6180517,43.9702261 C40.664839,43.9935941 40.6447873,44.0453374 40.6230647,44.1004189 C40.6122267,44.1245598 40.6038301,44.1497218 40.5980001,44.1755302 C40.3891282,45.4440753 38.5978434,56.3569023 38.1166027,59.3029316 Z M35.2893136,62.1254447 C34.2917417,63.1119055 33.7035587,63.6343458 33.0385107,63.8446572 C32.3827804,64.0517809 31.6790457,64.0517809 31.0233153,63.8446572 C30.2446411,63.5976247 29.5712383,62.9266311 28.2261038,61.5813055 L13.1990287,46.5707438 L17.1241482,40.4900725 C17.1425289,40.460028 17.1609096,40.4333218 17.1909872,40.411623 C17.2327615,40.3815785 17.2929166,40.3949316 17.3430459,40.411623 C18.2439693,40.6831274 19.2112683,40.6341667 20.0801023,40.2730845 C20.1252187,40.2564698 20.170335,40.2447092 20.2054254,40.2764228 C20.2229728,40.2924222 20.2386668,40.3103385 20.2522127,40.3298353 L35.2893136,62.1271138 L35.2893136,62.1254447 Z M11.7502937,45.1236008 L8.30307303,41.6801682 L15.1106237,38.7792057 C15.1280244,38.7716264 15.1467833,38.7676516 15.1657659,38.7675217 C15.222579,38.7675217 15.2559985,38.8242724 15.2860761,38.8760157 C15.3544891,38.981152 15.4269523,39.0836026 15.5033028,39.1831372 L15.5250255,39.2098434 C15.5450772,39.2382187 15.5317094,39.2665941 15.5116577,39.2933003 L11.7519647,45.1236008 L11.7502937,45.1236008 Z M6.77747317,40.1562449 L2.41622934,35.7997936 C1.6743166,35.0586961 1.13626276,34.5212336 0.76196444,34.0588822 L14.0228192,36.8062841 C14.0394772,36.8093679 14.0561897,36.8121503 14.0729485,36.8146298 C14.1548262,36.8279829 14.2450589,36.8430051 14.2450589,36.9197855 C14.2450589,37.0032424 14.1464714,37.0416326 14.0629226,37.0733462 L14.0244902,37.0900376 L6.77747317,40.1562449 Z M0,31.8188985 C0.0151125559,31.5382652 0.0656414934,31.2606615 0.150387718,30.992675 C0.397691966,30.2148565 1.06942377,29.5438628 2.41622934,28.1985373 L7.99728467,22.623615 C10.5669648,26.3489311 13.1436123,30.0694472 15.7272134,33.7851435 C15.7723297,33.8452325 15.8224589,33.9119981 15.7706587,33.9620722 C15.5266964,34.2308035 15.2827341,34.5245718 15.1106237,34.8433773 C15.0919523,34.8843563 15.0632123,34.9199548 15.027075,34.9468639 C15.0053523,34.960217 14.9819587,34.9552096 14.9568941,34.9502021 L14.9535521,34.9502021 L0,31.8172293 L0,31.8188985 Z M9.491136,21.1314052 L16.9921412,13.6353046 C17.6989635,13.9440952 20.2672515,15.027366 22.5614997,15.9954663 C24.2993133,16.7298872 25.8833973,17.3975426 26.3813477,17.6145306 C26.431477,17.6345602 26.4765933,17.6545899 26.498316,17.7046641 C26.5116838,17.7347086 26.5049999,17.7730987 26.498316,17.8048124 C26.2570119,18.9039737 26.5854444,20.0506561 27.3722357,20.8559974 C27.422365,20.9060715 27.3722357,20.9778445 27.3287904,21.0396026 L27.3053967,21.0746545 L19.6857523,32.8637791 C19.6657006,32.8971619 19.6473199,32.9255373 19.6139004,32.947236 C19.573797,32.9722731 19.5169839,32.9605892 19.4701966,32.9489052 C19.1738408,32.8713468 18.8691826,32.8298736 18.5628574,32.8253889 C18.2888175,32.8253889 17.991384,32.8754631 17.6906086,32.9305447 L17.6889376,32.9305447 C17.6555181,32.9355521 17.6254406,32.9422286 17.598705,32.922199 C17.5691762,32.8980936 17.5437785,32.8693412 17.5235111,32.8370729 L9.48946503,21.1314052 L9.491136,21.1314052 Z M18.5110572,12.1213961 L28.2261038,2.41702533 C29.5712383,1.07336891 30.2446411,0.400706131 31.0233153,0.155342784 C31.6790457,-0.0517809281 32.3827804,-0.0517809281 33.0385107,0.155342784 C33.8171849,0.400706131 34.4905877,1.07336891 35.8357223,2.41702533 L37.9411504,4.52013973 L31.0316702,15.2093021 C31.0145773,15.24042 30.991257,15.2676917 30.9631602,15.2894208 C30.9213859,15.3177961 30.8629018,15.3061122 30.8127725,15.2894208 C29.70683,14.9541678 28.5065208,15.1852232 27.6045012,15.907002 C27.5593849,15.9537379 27.4925459,15.9270317 27.4357327,15.9019946 C26.5334064,15.509747 19.5153129,12.5470264 18.5110572,12.1213961 L18.5110572,12.1213961 Z M39.4082661,5.98564326 L45.7880473,12.3584137 L44.2507506,21.8691644 L44.2507506,21.8942015 C44.2493781,21.9158769 44.2448756,21.9372403 44.2373828,21.9576287 C44.2206731,21.9910115 44.1872536,21.9976881 44.1538341,22.0077029 C43.8251519,22.1071527 43.5155892,22.2611996 43.23814,22.4633777 C43.226212,22.4718688 43.2150316,22.4813618 43.2047205,22.491753 C43.1863398,22.5117827 43.1679591,22.5301432 43.1378815,22.5335722 C43.1134016,22.534237 43.0890056,22.5302699 43.0660296,22.5217975 L33.3442991,18.3956874 L33.3259184,18.3873417 C33.2640923,18.3623046 33.1905694,18.3322601 33.1905694,18.2688328 C33.1334275,17.7276719 32.9564867,17.2059849 32.6725673,16.7415712 C32.62578,16.6647908 32.5739798,16.5846722 32.6140832,16.5062227 L39.4082661,5.98564326 Z M32.8379938,20.3502484 L41.9514895,24.2059582 C42.0016188,24.2293261 42.0567609,24.2510249 42.0784836,24.3027682 C42.0871799,24.333887 42.0871799,24.3667903 42.0784836,24.3979091 C42.051748,24.5314402 42.0283544,24.6833318 42.0283544,24.8368925 L42.0283544,25.0922707 C42.0283544,25.1556979 41.9631863,25.1824042 41.9030313,25.2074412 L41.8846505,25.2141178 C40.4409284,25.8300299 21.615728,33.8485708 21.5873215,33.8485708 C21.5589149,33.8485708 21.5288374,33.8485708 21.5004308,33.8201954 C21.4503016,33.7701213 21.5004308,33.7000175 21.5455471,33.6365902 C21.5535234,33.6255885 21.5613223,33.6144594 21.5689408,33.6032074 L29.0582491,22.0193869 L29.0716169,21.9993572 C29.1150623,21.9292534 29.1651915,21.8508039 29.2453983,21.8508039 L29.3205922,21.8624878 C29.4910316,21.8858558 29.6414193,21.9075546 29.793478,21.9075546 C30.9297407,21.9075546 31.9824548,21.3550698 32.6174251,20.4103374 C32.6325537,20.3851095 32.6517497,20.3625507 32.6742383,20.3435719 C32.7193546,20.3101891 32.7861936,20.3268805 32.8379938,20.3502484 L32.8379938,20.3502484 Z M22.4010861,35.6812848 L42.9206548,26.9400069 C42.9206548,26.9400069 42.9507324,26.9400069 42.9791389,26.9683823 C43.0910942,27.0802145 43.1863398,27.1553258 43.2782434,27.2254296 L43.3233597,27.2538049 C43.3651341,27.2771729 43.4069084,27.3038791 43.4102504,27.3472767 C43.4102504,27.3639681 43.4102504,27.3739829 43.4069084,27.3890051 L41.6490431,38.1749776 L41.6423592,38.2183752 C41.6306624,38.3018321 41.6189656,38.396973 41.5404298,38.396973 C40.5889667,38.4611236 39.7304827,38.9901381 39.2461816,39.8107332 L39.2378267,39.8240863 C39.214433,39.8624765 39.1927104,39.8991975 39.154278,39.9192272 C39.1191875,39.9359186 39.0740712,39.929242 39.0373097,39.9208963 L22.673455,36.5492367 C22.6567453,36.5458985 22.4194669,35.6829539 22.4010861,35.6812848 L22.4010861,35.6812848 Z" id="Shape" fill="url(#radialGradient-1)" fill-rule="nonzero"></path>
    </g>
</svg>