<svg xmlns="http://www.w3.org/2000/svg" viewBox="149.301 80.734 119.032 132.117" width="119.032" height="132.117">
    <defs>
        <linearGradient id="paint0_linear" x1="0" y1="0" x2="36" y2="36" gradientUnits="userSpaceOnUse"
            gradientTransform="matrix(3.500377, 0, 0, 3.500377, 152.518532, 84.091037)">
            <stop stop-color="#EA1330" />
            <stop offset="1" stop-color="#AF041A" />
        </linearGradient>
    </defs>
    <path fill-rule="evenodd" clip-rule="evenodd"
        d="M 152.518 94.592 C 152.518 88.795 157.219 84.091 163.019 84.091 L 254.029 84.091 C 259.829 84.091 264.53 88.795 264.53 94.592 L 264.53 109.595 C 264.53 115.395 259.829 120.096 254.029 120.096 L 163.019 120.096 C 157.219 120.096 152.518 115.395 152.518 109.595 L 152.518 94.592 Z M 152.518 139.596 C 152.518 133.8 157.219 129.095 163.019 129.095 L 254.029 129.095 C 259.829 129.095 264.53 133.8 264.53 139.596 L 264.53 154.599 C 264.53 160.399 259.829 165.1 254.029 165.1 L 163.019 165.1 C 157.219 165.1 152.518 160.399 152.518 154.599 L 152.518 139.596 Z M 163.019 174.1 C 157.219 174.1 152.518 178.804 152.518 184.601 L 152.518 199.603 C 152.518 205.404 157.219 210.105 163.019 210.105 L 205.024 210.105 C 210.824 210.105 215.525 205.404 215.525 199.603 L 215.525 184.601 C 215.525 178.804 210.824 174.1 205.024 174.1 L 163.019 174.1 Z"
        fill="url(#paint0_linear)" style="" />
</svg>